#N canvas 171 184 694 592 10;
#N canvas 234 239 748 347 sample-channel2 0;
#X obj 48 -33 inlet;
#X obj 54 266 outlet~;
#X obj 52 181 vline~;
#X obj 49 30 bng 15 250 50 0 empty empty empty 17 7 0 10 -262144 -1
-1;
#N canvas 0 22 450 300 (subpatch) 0;
#X array array2 176400 float 2;
#X coords 0 1 176400 -1 200 140 1;
#X restore 245 -28 graph;
#X obj 198 151 soundfiler;
#X floatatom 199 209 5 0 0 0 - - -;
#X obj 53 213 tabread~ array2;
#X obj 48 -4 spigot;
#X obj 246 190 / 44100;
#X obj 176 25 bang-eater;
#X obj 104 49 bng 15 250 50 0 empty empty empty 17 7 0 10 -262144 -1
-1;
#X floatatom 283 273 5 0 0 0 - - -;
#X obj 225 78 bng 15 250 50 0 empty empty empty 17 7 0 10 -262144 -1
-1;
#X floatatom 235 247 5 0 0 0 - - -;
#X msg 476 210 read -resize \$1 array2;
#X obj 489 -25 inlet;
#X obj 213 273 * 1000;
#X obj 59 70 f;
#X floatatom 136 80 5 0 0 0 - - -;
#X obj 53 106 pack f f f;
#X msg 52 149 \$1 \, \$2 \$3;
#X msg 154 136;
#X msg 311 184 f 1;
#X msg 487 93 symbol DubPhonicGroove1.wav;
#X obj 283 226 - 1;
#X obj 511 3 route 1 2 3 4;
#X obj 636 -6 bng 15 250 50 0 empty empty empty 17 7 0 10 -262144 -1
-1;
#X obj 114 -24 tgl 15 0 empty empty empty 17 7 0 10 -262144 -1 -1 0
1;
#X obj 482 33 bng 15 250 50 0 empty empty empty 17 7 0 10 -262144 -1
-1;
#X obj 510 34 bng 15 250 50 0 empty empty empty 17 7 0 10 -262144 -1
-1;
#X obj 534 34 bng 15 250 50 0 empty empty empty 17 7 0 10 -262144 -1
-1;
#X obj 560 34 bng 15 250 50 0 empty empty empty 17 7 0 10 -262144 -1
-1;
#X obj 408 172 bng 15 250 50 0 empty empty empty 17 7 0 10 -262144
-1 -1;
#X msg 362 140 1;
#X msg 467 71 symbol DubPhonicGroove0.wav;
#X msg 498 117 symbol DubPhonicGroove2.wav;
#X msg 516 144 symbol DubPhonicGroove3.wav;
#X obj 145 272 outlet;
#X connect 0 0 8 0;
#X connect 2 0 7 0;
#X connect 3 0 10 0;
#X connect 5 0 6 0;
#X connect 5 0 9 0;
#X connect 6 0 20 1;
#X connect 7 0 1 0;
#X connect 8 0 3 0;
#X connect 9 0 10 2;
#X connect 9 0 14 0;
#X connect 9 0 25 0;
#X connect 9 0 38 0;
#X connect 10 0 11 0;
#X connect 10 1 13 0;
#X connect 11 0 18 0;
#X connect 14 0 17 0;
#X connect 15 0 5 0;
#X connect 15 0 33 0;
#X connect 16 0 26 0;
#X connect 17 0 20 2;
#X connect 18 0 20 0;
#X connect 19 0 18 1;
#X connect 20 0 21 0;
#X connect 20 0 22 0;
#X connect 21 0 2 0;
#X connect 23 0 25 1;
#X connect 24 0 15 0;
#X connect 25 0 10 1;
#X connect 25 0 12 0;
#X connect 26 0 29 0;
#X connect 26 1 30 0;
#X connect 26 2 31 0;
#X connect 26 3 32 0;
#X connect 26 4 27 0;
#X connect 27 0 28 0;
#X connect 28 0 8 1;
#X connect 29 0 35 0;
#X connect 30 0 24 0;
#X connect 31 0 36 0;
#X connect 32 0 37 0;
#X connect 33 0 34 0;
#X connect 34 0 28 0;
#X connect 35 0 15 0;
#X connect 36 0 15 0;
#X connect 37 0 15 0;
#X restore 188 197 pd sample-channel2;
#X obj 335 393 dac~;
#X floatatom 43 85 5 0 0 0 - - -;
#X obj 70 -50 tgl 15 0 empty empty empty 17 7 0 10 -262144 -1 -1 0
1;
#X obj 43 17 float;
#X obj 85 17 + 1;
#X obj 88 108 hradio 15 1 0 8 empty empty empty 0 -8 0 10 -262144 -1
-1 0;
#X obj 43 137 bng 15 250 50 0 empty empty empty 17 7 0 10 -262144 -1
-1;
#X obj 43 56 mod 4;
#X obj 44 -21 metro 1000;
#N canvas 251 37 748 347 sample-channel1 0;
#X obj 48 -33 inlet;
#X obj 54 266 outlet~;
#X obj 52 181 vline~;
#X obj 49 30 bng 15 250 50 0 empty empty empty 17 7 0 10 -262144 -1
-1;
#N canvas 0 22 450 300 (subpatch) 0;
#X array array1 88200 float 2;
#X coords 0 1 88200 -1 200 140 1;
#X restore 245 -28 graph;
#X obj 198 151 soundfiler;
#X floatatom 199 209 5 0 0 0 - - -;
#X obj 48 -4 spigot;
#X obj 246 190 / 44100;
#X obj 176 25 bang-eater;
#X obj 104 49 bng 15 250 50 0 empty empty empty 17 7 0 10 -262144 -1
-1;
#X floatatom 283 273 5 0 0 0 - - -;
#X obj 225 78 bng 15 250 50 0 empty empty empty 17 7 0 10 -262144 -1
-1;
#X floatatom 235 247 5 0 0 0 - - -;
#X obj 489 -25 inlet;
#X obj 213 273 * 1000;
#X obj 59 70 f;
#X floatatom 136 80 5 0 0 0 - - -;
#X obj 53 106 pack f f f;
#X msg 52 149 \$1 \, \$2 \$3;
#X msg 154 136;
#X msg 311 184 f 1;
#X msg 466 87 symbol Percussion0.wav;
#X obj 53 214 tabread~ array1;
#X msg 475 226 read -resize \$1 array1;
#X obj 283 227 - 1;
#X obj 511 3 route 1 2 3 4;
#X obj 154 -23 tgl 15 0 empty empty empty 17 7 0 10 -262144 -1 -1 0
1;
#X obj 647 7 bng 15 250 50 0 empty empty empty 17 7 0 10 -262144 -1
-1;
#X obj 416 175 bng 15 250 50 0 empty empty empty 17 7 0 10 -262144
-1 -1;
#X obj 477 50 bng 15 250 50 0 empty empty empty 17 7 0 10 -262144 -1
-1;
#X obj 506 49 bng 15 250 50 0 empty empty empty 17 7 0 10 -262144 -1
-1;
#X obj 532 50 bng 15 250 50 0 empty empty empty 17 7 0 10 -262144 -1
-1;
#X obj 559 50 bng 15 250 50 0 empty empty empty 17 7 0 10 -262144 -1
-1;
#X msg 365 147 1;
#X msg 487 109 symbol Percussion1.wav;
#X msg 498 134 symbol Percussion2.wav;
#X msg 514 160 symbol Percussion3.wav;
#X obj 150 277 outlet;
#X connect 0 0 7 0;
#X connect 2 0 23 0;
#X connect 3 0 9 0;
#X connect 5 0 6 0;
#X connect 5 0 8 0;
#X connect 6 0 18 1;
#X connect 7 0 3 0;
#X connect 8 0 9 2;
#X connect 8 0 13 0;
#X connect 8 0 25 0;
#X connect 8 0 38 0;
#X connect 9 0 10 0;
#X connect 9 1 12 0;
#X connect 10 0 16 0;
#X connect 13 0 15 0;
#X connect 14 0 26 0;
#X connect 15 0 18 2;
#X connect 16 0 18 0;
#X connect 17 0 16 1;
#X connect 18 0 19 0;
#X connect 18 0 20 0;
#X connect 19 0 2 0;
#X connect 21 0 25 1;
#X connect 22 0 24 0;
#X connect 23 0 1 0;
#X connect 24 0 5 0;
#X connect 24 0 29 0;
#X connect 25 0 9 1;
#X connect 25 0 11 0;
#X connect 26 0 30 0;
#X connect 26 1 31 0;
#X connect 26 2 32 0;
#X connect 26 3 33 0;
#X connect 26 4 28 0;
#X connect 27 0 7 1;
#X connect 28 0 27 0;
#X connect 29 0 34 0;
#X connect 30 0 22 0;
#X connect 31 0 35 0;
#X connect 32 0 36 0;
#X connect 33 0 37 0;
#X connect 34 0 27 0;
#X connect 35 0 24 0;
#X connect 36 0 24 0;
#X connect 37 0 24 0;
#X restore 43 194 pd sample-channel1;
#N canvas 223 106 748 347 sample-channel3 1;
#X obj 48 -33 inlet;
#X obj 54 266 outlet~;
#X obj 52 181 vline~;
#X obj 49 30 bng 15 250 50 0 empty empty empty 17 7 0 10 -262144 -1
-1;
#N canvas 0 22 450 300 (subpatch) 0;
#X array array3 176402 float 2;
#X coords 0 1 176402 -1 200 140 1;
#X restore 245 -28 graph;
#X obj 198 151 soundfiler;
#X floatatom 199 209 5 0 0 0 - - -;
#X obj 48 -4 spigot;
#X obj 246 190 / 44100;
#X obj 176 25 bang-eater;
#X obj 104 49 bng 15 250 50 0 empty empty empty 17 7 0 10 -262144 -1
-1;
#X floatatom 283 273 5 0 0 0 - - -;
#X obj 225 78 bng 15 250 50 0 empty empty empty 17 7 0 10 -262144 -1
-1;
#X floatatom 235 247 5 0 0 0 - - -;
#X obj 489 -25 inlet;
#X obj 213 273 * 1000;
#X obj 59 70 f;
#X floatatom 136 80 5 0 0 0 - - -;
#X obj 53 106 pack f f f;
#X msg 52 149 \$1 \, \$2 \$3;
#X msg 154 136;
#X msg 311 184 f 1;
#X obj 53 213 tabread~ array3;
#X msg 475 214 read -resize \$1 array3;
#X obj 283 226 - 1;
#X obj 101 -31 tgl 15 0 empty empty empty 17 7 0 10 -262144 -1 -1 0
1;
#X obj 511 3 route 1 2 3 4;
#X obj 630 10 bng 15 250 50 0 empty empty empty 17 7 0 10 -262144 -1
-1;
#X obj 490 37 bng 15 250 50 0 empty empty empty 17 7 0 10 -262144 -1
-1;
#X obj 515 36 bng 15 250 50 0 empty empty empty 17 7 0 10 -262144 -1
-1;
#X obj 542 37 bng 15 250 50 0 empty empty empty 17 7 0 10 -262144 -1
-1;
#X obj 569 38 bng 15 250 50 0 empty empty empty 17 7 0 10 -262144 -1
-1;
#X obj 425 179 bng 15 250 50 0 empty empty empty 17 7 0 10 -262144
-1 -1;
#X msg 377 155 1;
#X obj 144 263 outlet;
#X msg 466 75 symbol BassLine0.wav;
#X msg 486 97 symbol BassLine1.wav;
#X msg 498 121 symbol BassLine2.wav;
#X msg 515 148 symbol BassLine3.wav;
#X connect 0 0 7 0;
#X connect 2 0 22 0;
#X connect 3 0 9 0;
#X connect 5 0 6 0;
#X connect 5 0 8 0;
#X connect 6 0 18 1;
#X connect 7 0 3 0;
#X connect 8 0 9 2;
#X connect 8 0 13 0;
#X connect 8 0 24 0;
#X connect 8 0 34 0;
#X connect 9 0 10 0;
#X connect 9 1 12 0;
#X connect 10 0 16 0;
#X connect 13 0 15 0;
#X connect 14 0 26 0;
#X connect 15 0 18 2;
#X connect 16 0 18 0;
#X connect 17 0 16 1;
#X connect 18 0 19 0;
#X connect 18 0 20 0;
#X connect 19 0 2 0;
#X connect 21 0 24 1;
#X connect 22 0 1 0;
#X connect 23 0 5 0;
#X connect 23 0 32 0;
#X connect 24 0 9 1;
#X connect 24 0 11 0;
#X connect 25 0 7 1;
#X connect 26 0 28 0;
#X connect 26 1 29 0;
#X connect 26 2 30 0;
#X connect 26 3 31 0;
#X connect 26 4 27 0;
#X connect 27 0 25 0;
#X connect 28 0 35 0;
#X connect 29 0 36 0;
#X connect 30 0 37 0;
#X connect 31 0 38 0;
#X connect 32 0 33 0;
#X connect 33 0 25 0;
#X connect 35 0 23 0;
#X connect 36 0 23 0;
#X connect 37 0 23 0;
#X connect 38 0 23 0;
#X restore 310 196 pd sample-channel3;
#N canvas 276 149 748 347 sample-channel4 0;
#X obj 48 -33 inlet;
#X obj 54 266 outlet~;
#X obj 52 181 vline~;
#X obj 49 30 bng 15 250 50 0 empty empty empty 17 7 0 10 -262144 -1
-1;
#N canvas 0 22 450 300 (subpatch) 0;
#X array array4 176400 float 2;
#X coords 0 1 176400 -1 200 140 1;
#X restore 245 -28 graph;
#X obj 198 151 soundfiler;
#X floatatom 199 209 5 0 0 0 - - -;
#X obj 48 -4 spigot;
#X obj 246 190 / 44100;
#X obj 176 25 bang-eater;
#X obj 104 49 bng 15 250 50 0 empty empty empty 17 7 0 10 -262144 -1
-1;
#X floatatom 283 273 5 0 0 0 - - -;
#X obj 225 78 bng 15 250 50 0 empty empty empty 17 7 0 10 -262144 -1
-1;
#X floatatom 235 247 5 0 0 0 - - -;
#X obj 489 -25 inlet;
#X obj 213 273 * 1000;
#X obj 59 70 f;
#X floatatom 136 80 5 0 0 0 - - -;
#X obj 53 106 pack f f f;
#X msg 52 149 \$1 \, \$2 \$3;
#X msg 154 136;
#X msg 311 184 f 1;
#X obj 283 226 - 1;
#X msg 515 131 symbol KindArp3.wav;
#X msg 475 197 read -resize \$1 array4;
#X obj 53 213 tabread~ array4;
#X obj 100 -27 tgl 15 0 empty empty empty 17 7 0 10 -262144 -1 -1 0
1;
#X obj 511 3 route 1 2 3 4;
#X obj 632 21 bng 15 250 50 0 empty empty empty 17 7 0 10 -262144 -1
-1;
#X obj 489 33 bng 15 250 50 0 empty empty empty 17 7 0 10 -262144 -1
-1;
#X obj 512 34 bng 15 250 50 0 empty empty empty 17 7 0 10 -262144 -1
-1;
#X obj 537 34 bng 15 250 50 0 empty empty empty 17 7 0 10 -262144 -1
-1;
#X obj 560 34 bng 15 250 50 0 empty empty empty 17 7 0 10 -262144 -1
-1;
#X msg 466 58 symbol KindArp0.wav;
#X msg 486 81 symbol KindArp1.wav;
#X msg 498 104 symbol KindArp2.wav;
#X obj 429 179 bng 15 250 50 0 empty empty empty 17 7 0 10 -262144
-1 -1;
#X msg 371 153 1;
#X obj 137 260 outlet;
#X connect 0 0 7 0;
#X connect 2 0 25 0;
#X connect 3 0 9 0;
#X connect 5 0 6 0;
#X connect 5 0 8 0;
#X connect 6 0 18 1;
#X connect 7 0 3 0;
#X connect 8 0 9 2;
#X connect 8 0 13 0;
#X connect 8 0 22 0;
#X connect 8 0 38 0;
#X connect 9 0 10 0;
#X connect 9 1 12 0;
#X connect 10 0 16 0;
#X connect 13 0 15 0;
#X connect 14 0 27 0;
#X connect 15 0 18 2;
#X connect 16 0 18 0;
#X connect 17 0 16 1;
#X connect 18 0 19 0;
#X connect 18 0 20 0;
#X connect 19 0 2 0;
#X connect 21 0 22 1;
#X connect 22 0 9 1;
#X connect 22 0 11 0;
#X connect 23 0 24 0;
#X connect 24 0 5 0;
#X connect 24 0 36 0;
#X connect 25 0 1 0;
#X connect 26 0 7 1;
#X connect 27 0 29 0;
#X connect 27 1 30 0;
#X connect 27 2 31 0;
#X connect 27 3 32 0;
#X connect 27 4 28 0;
#X connect 28 0 26 0;
#X connect 29 0 33 0;
#X connect 30 0 34 0;
#X connect 31 0 35 0;
#X connect 32 0 23 0;
#X connect 33 0 24 0;
#X connect 34 0 24 0;
#X connect 35 0 24 0;
#X connect 36 0 37 0;
#X connect 37 0 26 0;
#X restore 446 193 pd sample-channel4;
#X obj 334 347 *~;
#X obj 377 325 line~;
#X obj 377 303 \$1 30;
#X obj 377 270 tgl 15 0 empty empty empty 17 7 0 10 -262144 -1 -1 0
1;
#X obj 333 302 *~;
#X obj 243 357 line~;
#X obj 242 327 \$1 20;
#X floatatom 241 304 5 0 1 0 - - -;
#X obj 56 108 * 2;
#X msg 102 267 0.75;
#X text 68 206 percussion;
#X text 231 213 drums;
#X text 352 212 bass;
#X text 485 210 arp;
#X obj 65 242 loadbang;
#X obj 70 -98 r start;
#X obj -14 249 print metro;
#X obj 88 320 r volume;
#X obj 148 132 r ch1;
#X obj 292 132 r ch2;
#X obj 415 132 r ch3;
#X obj 551 130 r ch4;
#X obj 143 418 send cue;
#X connect 0 0 17 0;
#X connect 0 1 35 0;
#X connect 2 0 7 0;
#X connect 2 0 21 0;
#X connect 3 0 9 0;
#X connect 3 0 16 0;
#X connect 4 0 5 0;
#X connect 4 0 8 0;
#X connect 5 0 4 1;
#X connect 7 0 0 0;
#X connect 7 0 10 0;
#X connect 7 0 11 0;
#X connect 7 0 12 0;
#X connect 7 0 29 0;
#X connect 8 0 2 0;
#X connect 9 0 4 0;
#X connect 10 0 17 0;
#X connect 10 1 35 0;
#X connect 11 0 17 0;
#X connect 11 1 35 0;
#X connect 12 0 17 0;
#X connect 12 1 35 0;
#X connect 13 0 1 0;
#X connect 13 0 1 1;
#X connect 14 0 13 1;
#X connect 15 0 14 0;
#X connect 16 0 15 0;
#X connect 17 0 13 0;
#X connect 18 0 17 1;
#X connect 19 0 18 0;
#X connect 20 0 19 0;
#X connect 21 0 6 0;
#X connect 22 0 20 0;
#X connect 27 0 22 0;
#X connect 28 0 3 0;
#X connect 30 0 20 0;
#X connect 31 0 10 1;
#X connect 32 0 0 1;
#X connect 33 0 11 1;
#X connect 34 0 12 1;
